<?xml version="1.0" standalone="no"?>
<!DOCTYPE svg PUBLIC "-//W3C//DTD SVG 20010904//EN"
 "http://www.w3.org/TR/2001/REC-SVG-20010904/DTD/svg10.dtd">
<svg version="1.0" xmlns="http://www.w3.org/2000/svg"
 width="513.000000pt" height="513.000000pt" viewBox="0 0 513.000000 513.000000"
 preserveAspectRatio="xMidYMid meet">
<metadata>
Created by potrace 1.14, written by Peter Selinger 2001-2017
</metadata>
<g transform="translate(0.000000,513.000000) scale(0.100000,-0.100000)"
fill="#000000" stroke="none">
<path d="M2009 4637 c-134 -157 -199 -335 -199 -548 0 -177 50 -334 146 -458
19 -24 34 -47 34 -50 0 -3 -47 -30 -104 -59 -250 -126 -455 -317 -598 -556
-27 -44 -46 -81 -44 -84 3 -2 47 10 98 27 89 30 94 34 128 84 51 76 233 255
321 314 152 104 334 181 519 220 90 18 387 25 481 11 46 -7 47 -7 74 31 14 22
40 46 57 54 l31 15 -39 11 c-21 6 -93 18 -159 27 -210 28 -460 4 -610 -59 -73
-30 -140 -45 -113 -25 10 7 46 29 80 48 76 42 181 146 226 222 67 113 111 297
93 381 -12 50 -4 47 20 -9 12 -25 23 -44 25 -41 23 23 170 277 160 277 -27 0
-125 -34 -186 -65 -109 -56 -105 -48 -107 -172 -4 -223 -88 -420 -244 -568
-51 -48 -51 -49 -22 -10 217 285 228 658 30 968 -20 31 -42 57 -49 57 -7 -1
-29 -20 -49 -43z"/>
<path d="M4102 3247 c-26 -15 -47 -43 -55 -75 -5 -22 -3 -23 21 -17 35 8 68
40 81 76 8 25 7 29 -7 29 -9 -1 -27 -6 -40 -13z"/>
<path d="M3600 3189 c-52 -22 -98 -43 -103 -48 -16 -16 3 -53 23 -48 15 4 27
-17 70 -122 28 -69 58 -133 66 -141 12 -12 26 -9 111 26 104 43 114 53 93 104
-11 26 -14 28 -41 18 -18 -6 -29 -17 -29 -29 0 -12 -13 -24 -36 -34 -49 -20
-51 -20 -69 15 -24 46 -19 57 35 76 50 18 60 33 41 63 -8 12 -16 11 -53 -4
-23 -9 -48 -19 -55 -22 -11 -4 -43 55 -43 78 0 4 18 14 41 20 32 10 42 10 48
0 6 -9 13 -9 34 0 15 7 27 16 27 21 0 23 -32 68 -48 67 -9 0 -60 -18 -112 -40z"/>
<path d="M3365 3093 c-33 -14 -93 -38 -134 -55 l-73 -31 6 -35 c7 -47 17 -55
50 -42 19 7 26 15 22 25 -6 17 28 39 48 32 7 -3 32 -54 56 -114 67 -167 64
-163 100 -150 16 6 30 14 30 18 0 4 -25 67 -55 140 -30 73 -55 136 -55 141 0
14 50 21 64 8 11 -9 20 -8 39 2 24 13 25 14 10 51 -18 43 -26 44 -108 10z"/>
<path d="M3007 2948 l-28 -10 1 -161 c1 -89 -1 -170 -5 -179 -4 -9 -2 -26 4
-37 10 -17 15 -18 41 -10 33 12 43 34 38 82 -3 29 1 34 42 54 60 29 71 28 105
-7 31 -32 41 -35 79 -21 30 12 25 45 -9 64 -13 7 -69 63 -126 125 -56 61 -105
112 -108 111 -3 0 -19 -5 -34 -11z m86 -200 l-38 -17 -6 27 c-4 15 -7 46 -8
70 l-1 44 46 -54 45 -53 -38 -17z"/>
<path d="M4285 2896 c-16 -7 -38 -23 -49 -34 -18 -21 -18 -21 7 -27 34 -9 93
11 112 38 25 35 -13 48 -70 23z"/>
<path d="M2628 2793 c-49 -19 -88 -40 -88 -47 0 -20 19 -41 36 -41 14 0 73
-126 127 -269 3 -9 67 11 67 20 0 3 -11 32 -24 65 l-25 60 25 9 c14 6 27 10
29 10 2 0 27 -20 56 -45 55 -47 82 -54 113 -32 25 19 13 53 -22 61 -15 3 -42
19 -60 36 -27 25 -31 34 -22 49 21 41 12 91 -24 127 -44 44 -75 44 -188 -3z
m132 -43 c38 -38 18 -90 -40 -105 -23 -5 -27 -2 -39 32 -8 21 -16 44 -18 51
-3 7 9 18 28 27 44 19 45 19 69 -5z"/>
<path d="M2320 2669 c-89 -36 -91 -38 -83 -67 4 -15 12 -22 25 -20 16 3 28
-18 71 -122 29 -69 56 -131 61 -138 10 -17 42 -10 124 29 61 29 92 65 92 104
0 33 -32 83 -60 95 -25 10 -28 16 -23 41 7 35 -13 86 -38 99 -32 17 -92 10
-169 -21z m130 -43 c20 -26 8 -60 -30 -78 -34 -17 -35 -17 -46 5 -27 52 -26
65 3 75 40 15 59 14 73 -2z m64 -132 c9 -8 16 -29 16 -45 0 -25 -6 -33 -35
-45 -49 -20 -54 -19 -74 29 l-19 42 37 17 c45 22 56 22 75 2z"/>
<path d="M2045 2558 c-55 -23 -101 -42 -103 -43 -1 -1 2 -14 8 -29 7 -20 15
-26 28 -22 14 5 26 -18 71 -129 29 -73 59 -136 67 -139 15 -6 182 59 203 79
12 11 12 19 1 45 -7 17 -16 33 -21 35 -14 9 -58 -17 -52 -31 4 -12 -62 -54
-86 -54 -5 0 -16 19 -25 42 -14 33 -15 43 -4 49 7 5 16 9 19 9 4 0 23 7 42 15
34 14 35 16 26 44 l-10 29 -57 -23 -56 -23 -18 40 c-10 22 -18 41 -18 43 0 2
19 10 42 20 37 14 42 15 50 1 8 -14 28 -11 66 9 1 1 -5 18 -13 38 -20 48 -33
47 -160 -5z"/>
<path d="M4337 2509 c-36 -14 -30 -31 17 -46 31 -11 43 -10 73 2 33 14 35 17
22 31 -20 19 -77 26 -112 13z"/>
<path d="M1703 2418 c-34 -17 -25 -76 9 -63 12 5 27 -23 70 -127 38 -92 60
-134 73 -136 21 -5 181 56 195 74 8 9 7 23 -4 48 -17 41 -16 40 -50 25 -14 -7
-22 -17 -19 -25 3 -9 -10 -21 -38 -33 -24 -11 -46 -18 -49 -16 -4 2 -30 63
-59 134 -50 122 -55 131 -80 130 -14 0 -36 -5 -48 -11z"/>
<path d="M1505 2339 c-55 -22 -104 -44 -108 -49 -15 -13 3 -49 25 -52 17 -2
32 -30 76 -135 46 -113 57 -133 76 -132 11 0 59 17 106 38 90 39 100 52 80
101 -11 26 -14 27 -41 17 -17 -7 -29 -19 -29 -30 0 -17 -52 -47 -83 -47 -12 0
-37 52 -37 76 0 6 23 18 51 28 47 17 50 21 44 45 -4 14 -8 27 -10 29 -1 1 -26
-6 -54 -18 -28 -11 -54 -20 -56 -20 -5 0 -35 68 -35 80 0 4 18 13 41 20 32 11
42 11 48 1 9 -14 61 2 61 19 0 21 -31 70 -43 69 -6 0 -57 -18 -112 -40z"/>
<path d="M1205 2221 c-131 -60 -152 -221 -41 -318 44 -39 70 -47 141 -41 61 5
120 39 148 87 22 38 22 46 -6 58 -20 9 -27 6 -55 -28 -34 -41 -82 -60 -126
-52 -38 8 -82 53 -96 100 -17 57 8 108 64 134 52 24 61 23 85 -2 16 -18 22
-19 43 -9 12 7 24 14 26 15 8 7 -28 63 -43 69 -31 12 -100 5 -140 -13z"/>
<path d="M4120 2010 c-103 -27 -215 -67 -385 -140 -235 -99 -288 -121 -720
-293 l-210 -83 3 -35 2 -34 -22 26 -23 27 -208 -87 c-222 -92 -214 -86 -193
-146 5 -14 -2 -10 -21 12 l-29 33 -70 -26 c-152 -55 -168 -74 -145 -166 27
-107 84 -188 130 -188 15 0 63 21 107 48 45 26 231 121 413 212 246 123 330
169 326 180 -2 8 -7 33 -10 55 l-6 40 27 -42 c14 -24 31 -43 36 -43 6 0 76 38
157 85 80 47 248 143 371 213 217 123 225 129 223 157 -2 30 -2 30 14 8 l15
-22 54 34 c30 19 91 53 137 76 74 37 207 123 207 135 0 9 -40 1 -180 -36z"/>
<path d="M753 1923 c-12 -2 -27 -11 -33 -19 -10 -11 -6 -17 23 -29 45 -19 49
-19 95 1 l37 16 -40 19 c-41 19 -44 19 -82 12z"/>
<path d="M1364 1805 c-12 -18 -22 -24 -36 -19 -25 7 -68 -21 -68 -45 0 -10 7
-35 15 -54 l15 -36 75 31 c55 23 75 35 73 47 -3 12 -13 15 -37 13 l-34 -4 22
30 c20 28 20 62 0 62 -5 0 -16 -11 -25 -25z m-29 -76 c0 -7 -8 -15 -17 -17
-18 -3 -25 18 -11 32 10 10 28 1 28 -15z"/>
<path d="M1343 1639 c-29 -13 -40 -24 -37 -34 8 -19 16 -19 75 2 37 13 51 15
60 6 20 -20 3 -40 -50 -59 -49 -17 -63 -35 -40 -49 13 -8 97 22 122 43 21 19
22 60 1 90 -19 28 -72 28 -131 1z"/>
<path d="M848 1534 c-15 -8 -32 -23 -38 -34 -10 -19 -7 -20 34 -20 33 0 52 7
75 26 17 14 31 30 31 35 0 14 -72 10 -102 -7z"/>
<path d="M1416 1489 c-36 -28 -37 -89 -1 -124 40 -41 113 -27 135 26 35 84
-62 155 -134 98z m88 -35 c21 -21 20 -37 -3 -58 -24 -22 -49 -18 -68 11 -13
19 -12 24 6 42 25 25 44 27 65 5z"/>
<path d="M1566 1318 c-11 -6 -43 -8 -78 -5 -51 5 -59 3 -56 -11 2 -10 18 -22
36 -27 29 -10 31 -12 16 -27 -11 -11 -14 -25 -10 -43 l7 -26 35 43 c20 24 49
49 66 56 18 8 28 19 26 29 -4 21 -18 25 -42 11z"/>
<path d="M1068 1210 c-26 -20 -55 -76 -45 -87 21 -21 107 55 107 95 0 18 -34
14 -62 -8z"/>
<path d="M2023 1005 c-64 -28 -79 -31 -122 -24 -28 4 -71 17 -97 29 -45 19
-46 19 -30 1 9 -10 37 -29 61 -42 l43 -23 -45 -51 c-25 -27 -54 -68 -64 -90
-17 -38 -19 -38 -19 -12 0 15 6 43 14 62 15 34 15 34 -10 25 -80 -31 -84 -36
-84 -106 0 -54 6 -76 35 -134 19 -39 41 -70 48 -70 6 0 93 36 192 79 l180 79
8 44 c11 61 11 66 -7 133 -8 33 -15 77 -16 98 0 20 -3 37 -7 36 -5 -1 -41 -16
-80 -34z"/>
</g>
</svg>
